<?xml version="1.0" encoding="UTF-8"?>
<!-- Title: 2. Removed edges of N2 (40) -->
<!-- Creator: Pajek 5.16: http://mrvar.fdv.uni-lj.si/pajek -->
<!-- CreationDate: 02-24-2023, 0:53:37 -->
<svg xml:space="preserve" viewBox="0 0 872 869" xmlns="http://www.w3.org/2000/svg" xmlns:xlink="http://www.w3.org/1999/xlink" xmlns:inkscape="http://www.inkscape.org/namespaces/inkscape">
<title>2. Removed edges of N2 (40)</title>
<g inkscape:groupmode="layer" id="PajekSig" inkscape:label="PajekSignature">
<g transform="translate(3 851)">
<g transform="scale(0.1)">
<g transform="matrix(1 0 0 -1 0 96)">
<path d="M   7.67  49.98 L  31.76  72.76 L  46.91  78.63
         L  57.23  80.49 M  72.86  65.23 L  65.73  83.25
         L  57.06  75.49 L  56.75  68.65 M  76.27  68.03
         L  75.65  84.50 L  93.92  91.02 L 107.24  74.87
         M  80.29  67.72 L  89.28  84.81 L 104.77  81.70
         L 116.23  73.31 L 121.18  59.33 M  56.75  81.08
         L  71.31  64.30"
         style="fill:none; stroke:saddlebrown; stroke-width:5;"/>
<path d="M  86.18  70.21 L  91.45  73.00 L  95.78  69.58
         M  91.14  60.88 L  96.09  62.75 L  98.26  59.33"
         style="fill:none; stroke:saddlebrown; stroke-width:1.5;"/>
<path d="M  81.07  49.08 L  87.81  49.08 L  93.30  54.38
         L  93.30  60.88 L  93.30  67.39 L  87.81  72.69
         L  81.07  72.69 L  74.33  72.69 L  68.83  67.39
         L  68.83  60.88 L  68.83  54.38 L  74.33  49.08
         L  81.07  49.08 z"
         style="fill:maroon; stroke:saddlebrown; stroke-width:1;"/>
<path d="M  54.63  37.53 L  68.53  43.56 L  75.39  55.85
         L  69.90  65.35 L  64.41  72.86 L  48.60  74.06
         L  34.71  68.04 L  20.81  55.02 L  15.95  40.72
         L  17.44  33.22 L  24.92  28.72 L  40.73  30.51
         L  54.63  37.53 z"
         style="fill:maroon; stroke:saddlebrown; stroke-width:1;" />
<path d="M  77.82  50.63 L 103.84  59.33 L 131.10  43.80
         L 139.46  27.95 L 139.15  15.83 M  35.99   5.27
         L  47.15  32.92 L  61.71  50.01 L  70.07  46.90
         L  82.77  45.04 L  83.39  27.02 L  65.42  12.11
         M  68.52  50.63 L  91.14  49.39 L 103.53  43.17
         L 117.16  22.67 L 115.30   8.38"
         style="fill:none; stroke:saddlebrown; stroke-width:5;"/>
<path d="M  41.57  54.98 L  60.16  64.61 M  52.41  66.17
         L  57.99  57.47"
         style="fill:none; stroke:white; stroke-width:5;"/>
</g>
</g>
<animateMotion dur="20s" path="M3 0 L854 0" begin="120s" fill="freeze"/>
</g>
<g transform="translate(3 851)">
<g transform="scale(0.1)">
<text x="5" y="140" style="font-family:Brush Script MT;font-size:75px;fill:green;">Pajek</text>
</g>
<animateMotion dur="0.1s" path="M3 0 L854 0" begin="120s" fill="freeze"/>
</g>
</g>      <!-- Layer Signature -->

<g inkscape:groupmode="layer" id="PajekNet" inkscape:label="PajekNetwork">

<!-- Edge:     1   21 -->
<line x1="87.20" y1="434.50" x2="784.80" y2="434.50" style="stroke-width:4.00;stroke:rgb(85,107,47)"/>
<!-- Arc:    31   11 -->
<g transform="translate(436.00 130.65)">
<g transform="rotate(270.00)">
<path d="M 0 0 L -4.00 10.00 L 20.00 0 L -4.00 -10.00 z" style="fill:rgb(255,20,147)"/>
</g></g>
<line x1="436.00" y1="782.10" x2="436.00" y2="130.65" style="stroke-width:4.00;stroke:rgb(255,20,147)"/>

<!-- Vertex:     1 -->
<ellipse cx="87.20" cy="434.50" rx="22.50" ry="22.50" style="fill:rgb(218,165,32);stroke:rgb(102,0,0);stroke-width:0.50;"/>
<text x="87.20" y="439.50" style="font-family:Arial;font-weight: bold;font-size:15px;fill:rgb(173,0,0);text-anchor:middle;">v1</text>
<!-- Vertex:     2 -->
<ellipse cx="91.49" cy="380.12" rx="22.50" ry="22.50" style="fill:rgb(154,205,50);stroke:rgb(102,0,0);stroke-width:0.50;"/>
<text x="91.49" y="385.12" style="font-family:Arial;font-weight: bold;font-size:15px;fill:rgb(173,0,0);text-anchor:middle;">v2</text>
<!-- Vertex:     3 -->
<ellipse cx="104.27" cy="327.09" rx="22.50" ry="22.50" style="fill:rgb(100,149,237);stroke:rgb(102,0,0);stroke-width:0.50;"/>
<text x="104.27" y="332.09" style="font-family:Arial;font-weight: bold;font-size:15px;fill:rgb(173,0,0);text-anchor:middle;">v3</text>
<!-- Vertex:     4 -->
<ellipse cx="125.22" cy="276.69" rx="22.50" ry="22.50" style="fill:rgb(75,0,130);stroke:rgb(102,0,0);stroke-width:0.50;"/>
<text x="125.22" y="281.69" style="font-family:Arial;font-weight: bold;font-size:15px;fill:rgb(173,0,0);text-anchor:middle;">v4</text>
<!-- Vertex:     5 -->
<ellipse cx="153.81" cy="230.19" rx="22.50" ry="22.50" style="fill:rgb(210,105,30);stroke:rgb(102,0,0);stroke-width:0.50;"/>
<text x="153.81" y="235.19" style="font-family:Arial;font-weight: bold;font-size:15px;fill:rgb(173,0,0);text-anchor:middle;">v5</text>
<!-- Vertex:     6 -->
<ellipse cx="189.36" cy="188.71" rx="22.50" ry="22.50" style="fill:rgb(255,255,255);stroke:rgb(102,0,0);stroke-width:0.50;"/>
<text x="189.36" y="193.71" style="font-family:Arial;font-weight: bold;font-size:15px;fill:rgb(173,0,0);text-anchor:middle;">v6</text>
<!-- Vertex:     7 -->
<ellipse cx="230.98" cy="153.29" rx="22.50" ry="22.50" style="fill:rgb(255,99,33);stroke:rgb(102,0,0);stroke-width:0.50;"/>
<text x="230.98" y="158.29" style="font-family:Arial;font-weight: bold;font-size:15px;fill:rgb(173,0,0);text-anchor:middle;">v7</text>
<!-- Vertex:     8 -->
<ellipse cx="277.65" cy="124.79" rx="22.50" ry="22.50" style="fill:rgb(140,35,255);stroke:rgb(102,0,0);stroke-width:0.50;"/>
<text x="277.65" y="129.79" style="font-family:Arial;font-weight: bold;font-size:15px;fill:rgb(173,0,0);text-anchor:middle;">v8</text>
<!-- Vertex:     9 -->
<ellipse cx="328.21" cy="103.91" rx="22.50" ry="22.50" style="fill:rgb(96,109,196);stroke:rgb(102,0,0);stroke-width:0.50;"/>
<text x="328.21" y="108.91" style="font-family:Arial;font-weight: bold;font-size:15px;fill:rgb(173,0,0);text-anchor:middle;">v9</text>
<!-- Vertex:    10 -->
<ellipse cx="381.44" cy="91.18" rx="22.50" ry="22.50" style="fill:rgb(30,249,163);stroke:rgb(102,0,0);stroke-width:0.50;"/>
<text x="381.44" y="96.18" style="font-family:Arial;font-weight: bold;font-size:15px;fill:rgb(173,0,0);text-anchor:middle;">v10</text>
<!-- Vertex:    11 -->
<ellipse cx="436.00" cy="86.90" rx="22.50" ry="22.50" style="fill:rgb(0,153,0);stroke:rgb(102,0,0);stroke-width:0.50;"/>
<text x="436.00" y="91.90" style="font-family:Arial;font-weight: bold;font-size:15px;fill:rgb(173,0,0);text-anchor:middle;">v11</text>
<!-- Vertex:    12 -->
<ellipse cx="490.56" cy="91.18" rx="22.50" ry="22.50" style="fill:rgb(127,127,127);stroke:rgb(102,0,0);stroke-width:0.50;"/>
<text x="490.56" y="96.18" style="font-family:Arial;font-weight: bold;font-size:15px;fill:rgb(173,0,0);text-anchor:middle;">v12</text>
<!-- Vertex:    13 -->
<ellipse cx="543.79" cy="103.91" rx="22.50" ry="22.50" style="fill:rgb(0,0,0);stroke:rgb(102,0,0);stroke-width:0.50;"/>
<text x="543.79" y="108.91" style="font-family:Arial;font-weight: bold;font-size:15px;fill:rgb(173,0,0);text-anchor:middle;">v13</text>
<!-- Vertex:    14 -->
<ellipse cx="594.35" cy="124.79" rx="22.50" ry="22.50" style="fill:rgb(173,0,0);stroke:rgb(102,0,0);stroke-width:0.50;"/>
<text x="594.35" y="129.79" style="font-family:Arial;font-weight: bold;font-size:15px;fill:rgb(173,0,0);text-anchor:middle;">v14</text>
<!-- Vertex:    15 -->
<ellipse cx="641.02" cy="153.29" rx="22.50" ry="22.50" style="fill:rgb(204,255,178);stroke:rgb(102,0,0);stroke-width:0.50;"/>
<text x="641.02" y="158.29" style="font-family:Arial;font-weight: bold;font-size:15px;fill:rgb(173,0,0);text-anchor:middle;">v15</text>
<!-- Vertex:    16 -->
<ellipse cx="682.64" cy="188.71" rx="22.50" ry="22.50" style="fill:rgb(255,255,153);stroke:rgb(102,0,0);stroke-width:0.50;"/>
<text x="682.64" y="193.71" style="font-family:Arial;font-weight: bold;font-size:15px;fill:rgb(173,0,0);text-anchor:middle;">v16</text>
<!-- Vertex:    17 -->
<ellipse cx="718.19" cy="230.19" rx="22.50" ry="22.50" style="fill:rgb(255,0,255);stroke:rgb(102,0,0);stroke-width:0.50;"/>
<text x="718.19" y="235.19" style="font-family:Arial;font-weight: bold;font-size:15px;fill:rgb(173,0,0);text-anchor:middle;">v17</text>
<!-- Vertex:    18 -->
<ellipse cx="746.78" cy="276.69" rx="22.50" ry="22.50" style="fill:rgb(0,112,145);stroke:rgb(102,0,0);stroke-width:0.50;"/>
<text x="746.78" y="281.69" style="font-family:Arial;font-weight: bold;font-size:15px;fill:rgb(173,0,0);text-anchor:middle;">v18</text>
<!-- Vertex:    19 -->
<ellipse cx="767.73" cy="327.09" rx="22.50" ry="22.50" style="fill:rgb(255,181,40);stroke:rgb(102,0,0);stroke-width:0.50;"/>
<text x="767.73" y="332.09" style="font-family:Arial;font-weight: bold;font-size:15px;fill:rgb(173,0,0);text-anchor:middle;">v19</text>
<!-- Vertex:    20 -->
<ellipse cx="780.51" cy="380.12" rx="22.50" ry="22.50" style="fill:rgb(255,10,155);stroke:rgb(102,0,0);stroke-width:0.50;"/>
<text x="780.51" y="385.12" style="font-family:Arial;font-weight: bold;font-size:15px;fill:rgb(173,0,0);text-anchor:middle;">v20</text>
<!-- Vertex:    21 -->
<ellipse cx="784.80" cy="434.50" rx="22.50" ry="22.50" style="fill:rgb(0,224,0);stroke:rgb(102,0,0);stroke-width:0.50;"/>
<text x="784.80" y="439.50" style="font-family:Arial;font-weight: bold;font-size:15px;fill:rgb(173,0,0);text-anchor:middle;">v21</text>
<!-- Vertex:    22 -->
<ellipse cx="780.51" cy="488.88" rx="22.50" ry="22.50" style="fill:rgb(255,119,158);stroke:rgb(102,0,0);stroke-width:0.50;"/>
<text x="780.51" y="493.88" style="font-family:Arial;font-weight: bold;font-size:15px;fill:rgb(173,0,0);text-anchor:middle;">v22</text>
<!-- Vertex:    23 -->
<ellipse cx="767.73" cy="541.91" rx="22.50" ry="22.50" style="fill:rgb(216,242,255);stroke:rgb(102,0,0);stroke-width:0.50;"/>
<text x="767.73" y="546.91" style="font-family:Arial;font-weight: bold;font-size:15px;fill:rgb(173,0,0);text-anchor:middle;">v23</text>
<!-- Vertex:    24 -->
<ellipse cx="746.78" cy="592.31" rx="22.50" ry="22.50" style="fill:rgb(216,255,79);stroke:rgb(102,0,0);stroke-width:0.50;"/>
<text x="746.78" y="597.31" style="font-family:Arial;font-weight: bold;font-size:15px;fill:rgb(173,0,0);text-anchor:middle;">v24</text>
<!-- Vertex:    25 -->
<ellipse cx="718.19" cy="638.81" rx="22.50" ry="22.50" style="fill:rgb(255,132,255);stroke:rgb(102,0,0);stroke-width:0.50;"/>
<text x="718.19" y="643.81" style="font-family:Arial;font-weight: bold;font-size:15px;fill:rgb(173,0,0);text-anchor:middle;">v25</text>
<!-- Vertex:    26 -->
<ellipse cx="682.64" cy="680.29" rx="22.50" ry="22.50" style="fill:rgb(229,255,204);stroke:rgb(102,0,0);stroke-width:0.50;"/>
<text x="682.64" y="685.29" style="font-family:Arial;font-weight: bold;font-size:15px;fill:rgb(173,0,0);text-anchor:middle;">v26</text>
<!-- Vertex:    27 -->
<ellipse cx="641.02" cy="715.71" rx="22.50" ry="22.50" style="fill:rgb(204,204,255);stroke:rgb(102,0,0);stroke-width:0.50;"/>
<text x="641.02" y="720.71" style="font-family:Arial;font-weight: bold;font-size:15px;fill:rgb(173,0,0);text-anchor:middle;">v27</text>
<!-- Vertex:    28 -->
<ellipse cx="594.35" cy="744.21" rx="22.50" ry="22.50" style="fill:rgb(89,221,255);stroke:rgb(102,0,0);stroke-width:0.50;"/>
<text x="594.35" y="749.21" style="font-family:Arial;font-weight: bold;font-size:15px;fill:rgb(173,0,0);text-anchor:middle;">v28</text>
<!-- Vertex:    29 -->
<ellipse cx="543.79" cy="765.09" rx="22.50" ry="22.50" style="fill:rgb(255,217,188);stroke:rgb(102,0,0);stroke-width:0.50;"/>
<text x="543.79" y="770.09" style="font-family:Arial;font-weight: bold;font-size:15px;fill:rgb(173,0,0);text-anchor:middle;">v29</text>
<!-- Vertex:    30 -->
<ellipse cx="490.56" cy="777.82" rx="22.50" ry="22.50" style="fill:rgb(219,147,112);stroke:rgb(102,0,0);stroke-width:0.50;"/>
<text x="490.56" y="782.82" style="font-family:Arial;font-weight: bold;font-size:15px;fill:rgb(173,0,0);text-anchor:middle;">v30</text>
<!-- Vertex:    31 -->
<ellipse cx="436.00" cy="782.10" rx="22.50" ry="22.50" style="fill:rgb(204,255,255);stroke:rgb(102,0,0);stroke-width:0.50;"/>
<text x="436.00" y="787.10" style="font-family:Arial;font-weight: bold;font-size:15px;fill:rgb(173,0,0);text-anchor:middle;">v31</text>
<!-- Vertex:    32 -->
<ellipse cx="381.44" cy="777.82" rx="22.50" ry="22.50" style="fill:rgb(216,216,216);stroke:rgb(102,0,0);stroke-width:0.50;"/>
<text x="381.44" y="782.82" style="font-family:Arial;font-weight: bold;font-size:15px;fill:rgb(173,0,0);text-anchor:middle;">v32</text>
<!-- Vertex:    33 -->
<ellipse cx="328.21" cy="765.09" rx="22.50" ry="22.50" style="fill:rgb(102,102,102);stroke:rgb(102,0,0);stroke-width:0.50;"/>
<text x="328.21" y="770.09" style="font-family:Arial;font-weight: bold;font-size:15px;fill:rgb(173,0,0);text-anchor:middle;">v33</text>
<!-- Vertex:    34 -->
<ellipse cx="277.65" cy="744.21" rx="22.50" ry="22.50" style="fill:rgb(165,165,165);stroke:rgb(102,0,0);stroke-width:0.50;"/>
<text x="277.65" y="749.21" style="font-family:Arial;font-weight: bold;font-size:15px;fill:rgb(173,0,0);text-anchor:middle;">v34</text>
<!-- Vertex:    35 -->
<ellipse cx="230.98" cy="715.71" rx="22.50" ry="22.50" style="fill:rgb(63,63,63);stroke:rgb(102,0,0);stroke-width:0.50;"/>
<text x="230.98" y="720.71" style="font-family:Arial;font-weight: bold;font-size:15px;fill:rgb(173,0,0);text-anchor:middle;">v35</text>
<!-- Vertex:    36 -->
<ellipse cx="189.36" cy="680.29" rx="22.50" ry="22.50" style="fill:rgb(229,229,229);stroke:rgb(102,0,0);stroke-width:0.50;"/>
<text x="189.36" y="685.29" style="font-family:Arial;font-weight: bold;font-size:15px;fill:rgb(173,0,0);text-anchor:middle;">v36</text>
<!-- Vertex:    37 -->
<ellipse cx="153.81" cy="638.81" rx="22.50" ry="22.50" style="fill:rgb(38,38,38);stroke:rgb(102,0,0);stroke-width:0.50;"/>
<text x="153.81" y="643.81" style="font-family:Arial;font-weight: bold;font-size:15px;fill:rgb(173,0,0);text-anchor:middle;">v37</text>
<!-- Vertex:    38 -->
<ellipse cx="125.22" cy="592.31" rx="22.50" ry="22.50" style="fill:rgb(191,191,191);stroke:rgb(102,0,0);stroke-width:0.50;"/>
<text x="125.22" y="597.31" style="font-family:Arial;font-weight: bold;font-size:15px;fill:rgb(173,0,0);text-anchor:middle;">v38</text>
<!-- Vertex:    39 -->
<ellipse cx="104.27" cy="541.91" rx="22.50" ry="22.50" style="fill:rgb(89,89,89);stroke:rgb(102,0,0);stroke-width:0.50;"/>
<text x="104.27" y="546.91" style="font-family:Arial;font-weight: bold;font-size:15px;fill:rgb(173,0,0);text-anchor:middle;">v39</text>
<!-- Vertex:    40 -->
<ellipse cx="91.49" cy="488.88" rx="22.50" ry="22.50" style="fill:rgb(0,255,255);stroke:rgb(102,0,0);stroke-width:0.50;"/>
<text x="91.49" y="493.88" style="font-family:Arial;font-weight: bold;font-size:15px;fill:rgb(173,0,0);text-anchor:middle;">v40</text>
</g>         <!-- Layer Network -->
</svg>
